<svg xmlns="http://www.w3.org/2000/svg" width="80" height="15" version="1"><defs><clipPath id="a"><path stroke-width=".922" d="M171.998 239.12h20.614v12.484h-20.614z"/></clipPath></defs><path fill="#fff" stroke="#000" stroke-width="1.042" d="M170.5 237.862h80v15h-80z" transform="matrix(.9875 0 0 .93335 -167.875 -221.476)"/><path d="M1.975 1.933h76.038v11.2H1.975z"/><path d="M1.975 1.945v11.2h20.08c1.293-1.634 2.165-3.532 2.165-5.6 0-2.054-.857-3.974-2.134-5.6H1.976z" fill="#abb1aa"/><g clip-path="url(#a)" transform="matrix(.94924 0 0 .8972 -161.127 -212.603)"><path d="M190.064 245.362a7.047 7.047 0 1 1-14.094.01v-.01a7.047 7.047 0 1 1 14.094-.008v.008z" fill="#fff"/><path d="M188.746 239.622c1.562 1.563 2.344 3.477 2.344 5.74 0 2.264-.768 4.157-2.304 5.68-1.63 1.603-3.556 2.405-5.78 2.405-2.195 0-4.088-.795-5.677-2.385-1.59-1.59-2.386-3.49-2.386-5.7s.795-4.123 2.385-5.74c1.548-1.563 3.44-2.344 5.677-2.344 2.264 0 4.176.78 5.74 2.344zm-10.365 1.052c-1.32 1.334-1.98 2.897-1.98 4.69 0 1.793.653 3.343 1.96 4.65 1.308 1.308 2.865 1.96 4.67 1.96 1.807 0 3.377-.66 4.712-1.98 1.267-1.227 1.9-2.77 1.9-4.63 0-1.846-.644-3.413-1.93-4.7-1.288-1.288-2.848-1.93-4.68-1.93-1.834 0-3.384.646-4.65 1.94zm3.478 3.902c-.202-.44-.504-.66-.907-.66-.712 0-1.068.48-1.068 1.438 0 .96.356 1.44 1.07 1.44.47 0 .805-.235 1.007-.703l.986.527c-.47.836-1.177 1.255-2.118 1.255-.727 0-1.308-.223-1.745-.668-.438-.445-.656-1.06-.656-1.842 0-.77.225-1.38.676-1.83.45-.454 1.012-.68 1.684-.68.996 0 1.71.393 2.14 1.176l-1.07.548zm4.646 0c-.202-.44-.498-.66-.89-.66-.726 0-1.09.48-1.09 1.438 0 .96.364 1.44 1.09 1.44.472 0 .802-.235.99-.703l1.01.527c-.47.836-1.175 1.255-2.115 1.255-.726 0-1.307-.223-1.743-.668-.436-.445-.654-1.06-.654-1.842 0-.77.22-1.38.664-1.83.443-.454 1.007-.68 1.692-.68.993 0 1.705.393 2.134 1.176l-1.09.548z"/></g><path d="M29.052 6.9c.242 0 .426-.05.55-.15.127-.1.19-.246.19-.44s-.063-.34-.19-.44c-.124-.103-.308-.154-.55-.154h-.85V6.9h.85m.052 2.45c.31 0 .54-.06.695-.183.156-.123.235-.308.235-.555 0-.243-.077-.424-.232-.544-.154-.123-.387-.184-.7-.184h-.902V9.35h.904m1.43-2.014c.33.09.586.257.768.5.18.242.27.54.27.892 0 .54-.193.943-.582 1.208-.39.265-.98.397-1.774.397h-2.553v-5.6h2.31c.828 0 1.427.118 1.797.353.373.235.56.61.56 1.13 0 .27-.068.504-.204.697-.136.19-.333.33-.592.423m.906-2.603h1.682L34.48 6.73l1.36-1.997h1.685l-2.274 3.24v2.36h-1.537v-2.36l-2.273-3.24m5.254 2.843h2.51v1.092h-2.51V7.576m3.712-2.843h1.718l2.17 3.84v-3.84h1.458v5.6h-1.718l-2.17-3.84v3.84h-1.458v-5.6m11.588 5.293c-.283.137-.577.24-.883.31a4.29 4.29 0 0 1-.958.106c-.994 0-1.78-.26-2.362-.78-.58-.523-.87-1.23-.87-2.123 0-.896.29-1.604.87-2.124.58-.523 1.368-.784 2.362-.784.333 0 .652.035.96.105.305.07.6.174.882.31v1.16a3.445 3.445 0 0 0-.843-.4 2.967 2.967 0 0 0-.875-.128c-.548 0-.98.164-1.294.494-.313.33-.47.785-.47 1.365 0 .577.157 1.03.47 1.36.315.33.747.496 1.295.496.307 0 .6-.043.876-.128.278-.085.56-.22.844-.4v1.158m1.162-2.45h2.51v1.092h-2.51V7.576M61.02 4.91v1.185a5.724 5.724 0 0 0-.96-.31 4.036 4.036 0 0 0-.882-.106c-.368 0-.64.046-.815.14a.47.47 0 0 0-.264.444c0 .15.058.267.175.352.12.083.336.154.647.214l.656.124c.663.125 1.134.315 1.414.57.28.255.42.618.42 1.088 0 .617-.196 1.077-.588 1.38-.39.3-.984.45-1.786.45-.378 0-.758-.034-1.14-.1a7.41 7.41 0 0 1-1.14-.3V8.82c.38.19.747.334 1.1.43.358.096.702.144 1.032.144.336 0 .593-.053.772-.158a.496.496 0 0 0 .267-.45c0-.175-.062-.31-.185-.405-.12-.095-.36-.18-.723-.255l-.595-.124c-.597-.12-1.034-.31-1.31-.574-.275-.262-.412-.616-.412-1.06 0-.56.19-.988.575-1.288.384-.3.935-.45 1.654-.45.328 0 .665.024 1.01.07a9.48 9.48 0 0 1 1.076.208m5.366 4.403H63.98l-.38 1.02h-1.545l2.21-5.6H66.1l2.208 5.6h-1.546l-.376-1.02m-2.02-1.04h1.633l-.816-2.227-.82 2.228" font-size="8.259" font-weight="700" fill="#fff" font-family="Bitstream Vera Sans"/></svg>