<svg xmlns="http://www.w3.org/2000/svg" width="80" height="15" version="1"><defs><clipPath id="a"><path stroke-width=".922" d="M171.998 239.12h20.614v12.484h-20.614z"/></clipPath></defs><path fill="#fff" stroke="#000" stroke-width="1.042" d="M170.5 237.862h80v15h-80z" transform="matrix(.9875 0 0 .93335 -167.875 -221.476)"/><path d="M1.975 1.933h76.038v11.2H1.975z"/><path d="M1.975 1.945v11.2h20.08c1.293-1.634 2.165-3.532 2.165-5.6 0-2.054-.857-3.974-2.134-5.6H1.976z" fill="#abb1aa"/><g clip-path="url(#a)" transform="matrix(.94924 0 0 .8972 -161.127 -212.603)"><path d="M190.064 245.362a7.047 7.047 0 1 1-14.094.01v-.01a7.047 7.047 0 1 1 14.094-.008v.008z" fill="#fff"/><path d="M188.746 239.622c1.562 1.563 2.344 3.477 2.344 5.74 0 2.264-.768 4.157-2.304 5.68-1.63 1.603-3.556 2.405-5.78 2.405-2.195 0-4.088-.795-5.677-2.385-1.59-1.59-2.386-3.49-2.386-5.7s.795-4.123 2.385-5.74c1.548-1.563 3.44-2.344 5.677-2.344 2.264 0 4.176.78 5.74 2.344zm-10.365 1.052c-1.32 1.334-1.98 2.897-1.98 4.69 0 1.793.653 3.343 1.96 4.65 1.308 1.308 2.865 1.96 4.67 1.96 1.807 0 3.377-.66 4.712-1.98 1.267-1.227 1.9-2.77 1.9-4.63 0-1.846-.644-3.413-1.93-4.7-1.288-1.288-2.848-1.93-4.68-1.93-1.834 0-3.384.646-4.65 1.94zm3.478 3.902c-.202-.44-.504-.66-.907-.66-.712 0-1.068.48-1.068 1.438 0 .96.356 1.44 1.07 1.44.47 0 .805-.235 1.007-.703l.986.527c-.47.836-1.177 1.255-2.118 1.255-.727 0-1.308-.223-1.745-.668-.438-.445-.656-1.06-.656-1.842 0-.77.225-1.38.676-1.83.45-.454 1.012-.68 1.684-.68.996 0 1.71.393 2.14 1.176l-1.07.548zm4.646 0c-.202-.44-.498-.66-.89-.66-.726 0-1.09.48-1.09 1.438 0 .96.364 1.44 1.09 1.44.472 0 .802-.235.99-.703l1.01.527c-.47.836-1.175 1.255-2.115 1.255-.726 0-1.307-.223-1.743-.668-.436-.445-.654-1.06-.654-1.842 0-.77.22-1.38.664-1.83.443-.454 1.007-.68 1.692-.68.993 0 1.705.393 2.134 1.176l-1.09.548z"/></g><path d="M29.052 6.9c.242 0 .426-.05.55-.15.127-.1.19-.246.19-.44s-.063-.34-.19-.44c-.124-.103-.308-.154-.55-.154h-.85V6.9h.85m.052 2.45c.31 0 .54-.06.695-.183.156-.123.235-.308.235-.555 0-.243-.077-.424-.232-.544-.154-.123-.387-.184-.7-.184h-.902V9.35h.904m1.43-2.014c.33.09.586.257.768.5.18.242.27.54.27.892 0 .54-.193.943-.582 1.208-.39.265-.98.397-1.774.397h-2.553v-5.6h2.31c.828 0 1.427.118 1.797.353.373.235.56.61.56 1.13 0 .27-.068.504-.204.697-.136.19-.333.33-.592.423m.906-2.603h1.682L34.48 6.73l1.36-1.997h1.685l-2.274 3.24v2.36h-1.537v-2.36l-2.273-3.24" font-size="8.259" font-weight="700" fill="#fff" font-family="Bitstream Vera Sans"/></svg>