<svg xmlns="http://www.w3.org/2000/svg" width="80" height="15" viewBox="0 0 80 15"><path fill="#FFF" d="M0 0h80v15H0z"/><path d="M22.797 2a10.297 10.297 0 0 1 0 11H80V2H22.797zM12.42 2.03c-3.137 0-3.926 2.96-3.926 5.47s.787 5.47 3.926 5.47c3.137 0 3.924-2.96 3.924-5.47s-.787-5.47-3.924-5.47zm0 2.064c.127 0 .242.02.352.047.227.194.336.464.12.84l-2.09 3.837A10.04 10.04 0 0 1 10.73 7.5c0-1.105.077-3.406 1.69-3.406zm1.562 1.77c.11.587.127 1.202.127 1.636 0 1.105-.077 3.406-1.69 3.406-.127 0-.244-.012-.354-.04-.02-.005-.04-.013-.06-.02l-.1-.03c-.358-.155-.585-.43-.26-.92l2.336-4.033z"/><path d="M21.23 3.848A9.15 9.15 0 0 0 19.193.782 10.27 10.27 0 0 0 18.302 0h-3.708c1.248.348 2.367 1.01 3.354 1.998.736.736 1.3 1.576 1.684 2.516s.578 1.936.578 2.986c0 2.184-.746 3.994-2.227 5.44a8.23 8.23 0 0 1-2.596 1.718c-.344.143-.694.25-1.046.342h3.893c.336-.257.664-.53.972-.834a8.608 8.608 0 0 0 2.02-3c.466-1.143.694-2.363.694-3.666 0-1.29-.23-2.51-.69-3.652zM6.956 12.975a8.134 8.134 0 0 1-1.73-2.527 7.59 7.59 0 0 1-.6-2.947c0-1.028.204-2.015.6-2.954a8.244 8.244 0 0 1 1.73-2.56C7.917 1.003 9.02.345 10.267 0H6.58c-.29.235-.576.484-.848.762a9.595 9.595 0 0 0-2.1 3.125A9.396 9.396 0 0 0 2.92 7.5c0 1.268.236 2.47.71 3.613s1.165 2.17 2.07 3.086c.294.29.605.552.923.8h3.88a7.6 7.6 0 0 1-1.02-.328 8.023 8.023 0 0 1-2.526-1.697z"/><path d="M80 0v15H0V0h80m-.75.75H.75v13.5h78.5V.75z"/><g fill="#FFF"><path d="M30.514 8.106c-.28.233-.678.35-1.197.35h-.993v1.717h-.99V5.398h2.05c.472 0 .848.123 1.13.37s.42.627.42 1.143c0 .565-.14.963-.42 1.196zm-.76-1.72c-.128-.105-.305-.158-.532-.158h-.898v1.406h.898c.228 0 .404-.058.53-.172.127-.114.19-.296.19-.544 0-.25-.063-.426-.19-.53zM31.733 5.398h1.015V8.33c0 .33.038.568.116.72.12.267.383.4.787.4.403 0 .665-.134.785-.4.077-.15.116-.39.116-.72V5.4h1.015v2.935c0 .508-.08.902-.236 1.186-.294.518-.854.776-1.68.776-.825 0-1.386-.26-1.68-.777-.158-.284-.237-.68-.237-1.187V5.398zM40.085 5.907c.146.203.22.446.22.73 0 .29-.075.525-.222.702-.083.1-.204.19-.364.27.242.09.426.23.55.422s.187.425.187.7c0 .282-.07.536-.213.76a1.325 1.325 0 0 1-.877.616 3.335 3.335 0 0 1-.675.064H36.54V5.398h2.308c.582.01.994.18 1.237.51zm-2.593.32V7.28h1.16c.208 0 .376-.04.505-.118.13-.08.194-.22.194-.42 0-.222-.085-.368-.256-.44a1.78 1.78 0 0 0-.563-.074h-1.038zm0 1.843v1.273h1.16c.206 0 .367-.028.482-.084.21-.105.313-.304.313-.598 0-.248-.1-.42-.304-.512a1.248 1.248 0 0 0-.476-.08h-1.175zM41.313 5.398h.998v3.916h2.385v.858h-3.382V5.398zM46.275 10.173h-.99V5.398h.99v4.775zM47.665 5.897c.385-.393.874-.59 1.468-.59.795 0 1.376.264 1.743.79.203.297.312.594.327.892h-.998c-.063-.23-.145-.403-.244-.52-.177-.207-.44-.31-.79-.31-.354 0-.635.145-.84.437s-.308.707-.308 1.242.108.936.324 1.202c.217.267.492.4.826.4.342 0 .603-.114.782-.344.1-.123.182-.308.247-.554h.992c-.086.52-.304.943-.655 1.27s-.802.49-1.35.49c-.68 0-1.215-.222-1.604-.662-.39-.442-.583-1.05-.583-1.82.002-.83.224-1.473.665-1.925zM54.797 5.502c.335.11.606.312.813.606.167.237.28.494.34.77s.092.54.092.79c0 .636-.128 1.174-.383 1.614-.347.594-.88.89-1.603.89h-2.06V5.4h2.06c.297.005.544.04.74.104zm-1.83.726v3.116h.923c.47 0 .8-.232.985-.696a2.45 2.45 0 0 0 .152-.91c0-.486-.076-.86-.23-1.12s-.454-.39-.908-.39h-.922zM60.466 9.75c-.36.37-.882.556-1.564.556s-1.204-.186-1.564-.557c-.483-.457-.726-1.113-.726-1.97 0-.876.242-1.532.726-1.97.36-.372.882-.558 1.564-.558s1.204.186 1.564.557c.48.437.722 1.094.722 1.97 0 .857-.24 1.513-.722 1.97zm-.624-.727c.232-.292.35-.706.35-1.244 0-.536-.117-.95-.35-1.243-.23-.293-.545-.438-.94-.438s-.71.145-.946.436c-.235.292-.353.706-.353 1.244s.117.952.353 1.244c.235.29.55.437.946.437s.708-.146.94-.437zM65.116 5.398h1.436v4.774h-.93v-3.23l.004-.39.003-.387-.905 4.007h-.97l-.898-4.007c0 .09 0 .22.003.388.003.167.004.297.004.39v3.23h-.93V5.397h1.45l.87 3.754.862-3.754zM68.84 5.398h1.13l1.688 4.774h-1.082l-.314-.98h-1.76l-.322.98h-1.044l1.704-4.774zm-.066 2.97h1.223l-.602-1.878-.62 1.88zM73.175 10.173h-.99V5.398h.99v4.775zM74.093 5.398h1.046l1.894 3.33v-3.33h.93v4.774h-.997l-1.943-3.388v3.388h-.93V5.398z"/></g></svg>